<svg width="50" height="48" viewBox="0 0 50 48" fill="none" xmlns="http://www.w3.org/2000/svg">
<path d="M39.814 47.4556C34.4809 47.4556 30.1279 42.9398 30.1279 37.4073V36.2251C30.1279 35.2558 30.9028 34.4519 31.8372 34.4519C32.7716 34.4519 33.5465 35.2558 33.5465 36.2251V37.4073C33.5465 41.001 36.3498 43.9091 39.814 43.9091C43.2781 43.9091 46.0814 41.001 46.0814 37.4073C46.0814 33.8135 43.2781 30.9054 39.814 30.9054H2.2093C1.27488 30.9054 0.5 30.1016 0.5 29.1322C0.5 28.1628 1.27488 27.3589 2.2093 27.3589H39.814C45.147 27.3589 49.5 31.8748 49.5 37.4073C49.5 42.9398 45.147 47.4556 39.814 47.4556Z" fill="white"/>
<path d="M39.814 23.8125H2.2093C1.27488 23.8125 0.5 23.0086 0.5 22.0392C0.5 21.0699 1.27488 20.266 2.2093 20.266H39.814C43.2781 20.266 46.0814 17.3579 46.0814 13.7641C46.0814 10.1704 43.2781 7.26228 39.814 7.26228C36.3498 7.26228 33.5465 10.1704 33.5465 13.7641V14.9463C33.5465 15.9157 32.7716 16.7195 31.8372 16.7195C30.9028 16.7195 30.1279 15.9157 30.1279 14.9463V13.7641C30.1279 8.23165 34.4809 3.71581 39.814 3.71581C45.147 3.71581 49.5 8.23165 49.5 13.7641C49.5 19.2966 45.147 23.8125 39.814 23.8125Z" fill="white"/>
<path d="M18.8693 16.7221H2.2093C1.27488 16.7221 0.5 15.9182 0.5 14.9489C0.5 13.9795 1.27488 13.1756 2.2093 13.1756H18.8693C21.3079 13.1756 23.2907 11.1187 23.2907 8.58887C23.2907 6.05905 21.3079 4.0021 18.8693 4.0021C16.4307 4.0021 14.4479 6.05905 14.4479 8.58887V9.48731C14.4479 10.4567 13.673 11.2605 12.7386 11.2605C11.8042 11.2605 11.0293 10.4803 11.0293 9.48731V8.58887C11.0293 4.09667 14.5391 0.455627 18.8693 0.455627C23.1995 0.455627 26.7093 4.09667 26.7093 8.58887C26.7093 13.0811 23.1995 16.7221 18.8693 16.7221Z" fill="white"/>
</svg>
