<svg width="22" height="24" viewBox="0 0 22 24" fill="none" xmlns="http://www.w3.org/2000/svg">
<path d="M10.3659 22.8838C4.65202 22.8838 0 17.7489 0 11.4419C0 5.13491 4.65202 0 10.3659 0C16.0798 0 20.7318 5.13491 20.7318 11.4419C20.7318 17.7489 16.0798 22.8838 10.3659 22.8838ZM10.3659 1.67443C5.4813 1.67443 1.51696 6.06142 1.51696 11.4419C1.51696 16.8224 5.4813 21.2094 10.3659 21.2094C15.2505 21.2094 19.2149 16.8224 19.2149 11.4419C19.2149 6.06142 15.2505 1.67443 10.3659 1.67443Z" fill="#626262"/>
<path d="M20.9851 24C20.7929 24 20.6008 23.9219 20.4491 23.7544L18.4265 21.5218C18.1332 21.1981 18.1332 20.6623 18.4265 20.3386C18.7197 20.0149 19.2052 20.0149 19.4984 20.3386L21.5211 22.5712C21.8143 22.8949 21.8143 23.4307 21.5211 23.7544C21.3694 23.9219 21.1772 24 20.9851 24Z" fill="#626262"/>
</svg>
