<svg width="51" height="35" viewBox="0 0 51 35" fill="none" xmlns="http://www.w3.org/2000/svg">
<path d="M48.7404 20.8829C48.4382 20.8829 48.1359 20.8256 47.8569 20.6728L42.0448 17.8088C39.0225 16.3195 35.2563 16.3195 32.2107 17.8088C28.0725 19.8518 22.9346 19.8518 18.7963 17.8088C15.774 16.3195 12.0077 16.3195 8.96217 17.8088L3.15005 20.6728C2.31311 21.0738 1.24368 20.8638 0.755457 20.1764C0.267239 19.5081 0.522972 18.6107 1.35992 18.2098L7.17204 15.3458C11.3103 13.3028 16.4482 13.3028 20.5864 15.3458C23.6088 16.835 27.375 16.835 30.4206 15.3458C34.5588 13.3028 39.6967 13.3028 43.835 15.3458L49.6471 18.2098C50.484 18.6107 50.7398 19.489 50.2515 20.1764C49.9028 20.6346 49.3216 20.8829 48.7404 20.8829Z" fill="white"/>
<path d="M13.8698 7.51252C11.5449 7.51252 9.22008 6.99699 7.15097 5.98504L1.33885 3.12102C0.525148 2.70097 0.246166 1.82267 0.757633 1.1544C1.24585 0.467037 2.31528 0.25701 3.15223 0.657972L8.96435 3.52199C11.9867 5.01127 15.7529 5.01127 18.7985 3.52199C22.9366 1.47899 28.0746 1.47899 32.2128 3.52199C35.2351 5.01127 39.0014 5.01127 42.0469 3.52199L47.859 0.657972C48.696 0.25701 49.7654 0.467037 50.2536 1.1544C50.7418 1.82267 50.4861 2.72006 49.6492 3.12102L43.837 5.98504C39.6988 8.02804 34.5609 8.02804 30.4227 5.98504C27.4004 4.49575 23.6341 4.49575 20.5886 5.98504C18.5195 6.99699 16.1946 7.51252 13.8698 7.51252Z" fill="white"/>
<path d="M48.7404 34.2483C48.4382 34.2483 48.1359 34.191 47.8569 34.0382L42.0448 31.1742C39.0225 29.6849 35.2563 29.6849 32.2107 31.1742C28.0725 33.2172 22.9346 33.2172 18.7963 31.1742C15.774 29.6849 12.0077 29.6849 8.96217 31.1742L3.15005 34.0382C2.31311 34.4392 1.24368 34.2292 0.755457 33.5418C0.267239 32.8735 0.522972 31.9761 1.35992 31.5752L7.17204 28.7112C11.3103 26.6682 16.4482 26.6682 20.5864 28.7112C23.6088 30.2004 27.375 30.2004 30.4206 28.7112C34.5588 26.6682 39.6967 26.6682 43.835 28.7112L49.6471 31.5752C50.484 31.9761 50.7398 32.8544 50.2515 33.5418C49.9028 34 49.3216 34.2483 48.7404 34.2483Z" fill="white"/>
</svg>
